<svg width="1160" height="760" viewBox="0 0 1160 760" fill="none" xmlns="http://www.w3.org/2000/svg">
<path d="M64.446 87.7954V81.25L95.537 66.8864V74.9545L73.446 84.4318L73.696 84V85.0454L73.446 84.6136L95.537 94.0909V102.159L64.446 87.7954Z" fill="black"/>
<path d="M1095.54 687.795L1064.45 702.159V694.091L1086.54 684.614L1086.29 685.045V684L1086.54 684.432L1064.45 674.955V666.886L1095.54 681.25V687.795Z" fill="black"/>
<path d="M279.52 84.1818V80.2045C282.096 80.2045 283.891 79.6818 284.906 78.6363C285.937 77.5757 286.452 75.856 286.452 73.4773V67.6818C286.452 65.1212 286.77 63.0227 287.406 61.3864C288.058 59.75 289.005 58.4773 290.247 57.5682C291.49 56.6591 293.005 56.0303 294.793 55.6818C296.581 55.3182 298.611 55.1364 300.884 55.1364V61.4545C299.096 61.4545 297.724 61.7045 296.77 62.2045C295.815 62.6894 295.156 63.4394 294.793 64.4545C294.444 65.4697 294.27 66.7651 294.27 68.3409V75.7954C294.27 76.9621 294.073 78.053 293.679 79.0682C293.285 80.0833 292.565 80.9773 291.52 81.75C290.474 82.5076 288.982 83.1061 287.043 83.5454C285.118 83.9697 282.611 84.1818 279.52 84.1818ZM300.884 112.886C298.611 112.886 296.581 112.705 294.793 112.341C293.005 111.992 291.49 111.364 290.247 110.455C289.005 109.545 288.058 108.273 287.406 106.636C286.77 105 286.452 102.902 286.452 100.341V94.5682C286.452 92.1894 285.937 90.4773 284.906 89.4318C283.891 88.3712 282.096 87.8409 279.52 87.8409V83.8636C282.611 83.8636 285.118 84.0833 287.043 84.5227C288.982 84.947 290.474 85.5454 291.52 86.3182C292.565 87.0757 293.285 87.9621 293.679 88.9773C294.073 89.9924 294.27 91.0757 294.27 92.2273V99.6818C294.27 101.258 294.444 102.553 294.793 103.568C295.156 104.583 295.815 105.341 296.77 105.841C297.724 106.341 299.096 106.591 300.884 106.591V112.886ZM279.52 87.8409V80.2045H286.724V87.8409H279.52Z" fill="black"/>
<path d="M890.474 683.864V687.841C887.899 687.841 886.096 688.371 885.065 689.432C884.05 690.477 883.543 692.189 883.543 694.568V700.341C883.543 702.902 883.217 705 882.565 706.636C881.929 708.273 880.99 709.545 879.747 710.455C878.505 711.364 876.99 711.992 875.202 712.341C873.414 712.705 871.384 712.886 869.111 712.886V706.591C870.899 706.591 872.27 706.341 873.224 705.841C874.179 705.341 874.831 704.583 875.179 703.568C875.543 702.553 875.724 701.258 875.724 699.682V692.227C875.724 691.076 875.921 689.992 876.315 688.977C876.709 687.962 877.429 687.076 878.474 686.318C879.52 685.545 881.005 684.947 882.929 684.523C884.868 684.083 887.384 683.864 890.474 683.864ZM869.111 655.136C871.384 655.136 873.414 655.318 875.202 655.682C876.99 656.03 878.505 656.659 879.747 657.568C880.99 658.477 881.929 659.75 882.565 661.386C883.217 663.023 883.543 665.121 883.543 667.682V673.477C883.543 675.856 884.05 677.576 885.065 678.636C886.096 679.682 887.899 680.205 890.474 680.205V684.182C887.384 684.182 884.868 683.97 882.929 683.545C881.005 683.106 879.52 682.508 878.474 681.75C877.429 680.977 876.709 680.083 876.315 679.068C875.921 678.053 875.724 676.962 875.724 675.795V668.341C875.724 666.765 875.543 665.47 875.179 664.455C874.831 663.439 874.179 662.689 873.224 662.205C872.27 661.705 870.899 661.455 869.111 661.455V655.136ZM890.474 680.205V687.841H883.27V680.205H890.474Z" fill="black"/>
<path d="M474.452 112.886V55.1364H490.883V61.4545H482.361V106.591H490.883V112.886H474.452Z" fill="black"/>
<path d="M685.543 655.136V712.886H669.111V706.591H677.634V661.455H669.111V655.136H685.543Z" fill="black"/>
<path d="M673.679 84.0227C673.679 78.3409 674.429 73.1212 675.929 68.3636C677.444 63.5909 679.694 59.1818 682.679 55.1364H690.429C689.277 56.6364 688.202 58.4773 687.202 60.6591C686.202 62.8257 685.33 65.2045 684.588 67.7954C683.861 70.3712 683.285 73.0454 682.861 75.8182C682.452 78.5909 682.247 81.3257 682.247 84.0227C682.247 87.6136 682.603 91.25 683.315 94.9318C684.043 98.6136 685.02 102.023 686.247 105.159C687.49 108.311 688.884 110.886 690.429 112.886H682.679C679.694 108.841 677.444 104.439 675.929 99.6818C674.429 94.9091 673.679 89.6894 673.679 84.0227Z" fill="black"/>
<path d="M486.315 684.023C486.315 689.689 485.558 694.909 484.043 699.682C482.543 704.439 480.3 708.841 477.315 712.886H469.565C470.732 711.386 471.808 709.553 472.793 707.386C473.793 705.22 474.656 702.841 475.383 700.25C476.126 697.659 476.702 694.977 477.111 692.205C477.535 689.432 477.747 686.705 477.747 684.023C477.747 680.432 477.383 676.795 476.656 673.114C475.944 669.432 474.967 666.015 473.724 662.864C472.497 659.712 471.111 657.136 469.565 655.136H477.315C480.3 659.182 482.543 663.591 484.043 668.364C485.558 673.121 486.315 678.341 486.315 684.023Z" fill="black"/>
<path d="M77.1762 303H61.4034V256.455H77.4944C82.1156 256.455 86.0853 257.386 89.4034 259.25C92.7368 261.098 95.2974 263.758 97.0853 267.227C98.8731 270.697 99.7671 274.848 99.7671 279.682C99.7671 284.53 98.8656 288.697 97.0625 292.182C95.2747 295.667 92.6913 298.341 89.3125 300.205C85.9489 302.068 81.9034 303 77.1762 303ZM69.8353 295.705H76.7671C80.0095 295.705 82.7141 295.114 84.8807 293.932C87.0474 292.735 88.6762 290.955 89.7671 288.591C90.858 286.212 91.4034 283.242 91.4034 279.682C91.4034 276.121 90.858 273.167 89.7671 270.818C88.6762 268.455 87.0625 266.689 84.9262 265.523C82.805 264.341 80.1686 263.75 77.0171 263.75H69.8353V295.705Z" fill="black"/>
<path d="M62.1676 503L49.0312 456.455H58.0994L66.4858 490.659H66.9176L75.8722 456.455H84.1222L93.0994 490.682H93.5085L101.895 456.455H110.963L97.8267 503H89.5085L80.1903 470.341H79.8267L70.4858 503H62.1676Z" fill="black"/>
<path d="M500.651 472.159H492.151C491.908 470.765 491.461 469.53 490.81 468.455C490.158 467.364 489.347 466.439 488.378 465.682C487.408 464.924 486.302 464.356 485.06 463.977C483.832 463.583 482.507 463.386 481.082 463.386C478.552 463.386 476.31 464.023 474.355 465.296C472.401 466.553 470.87 468.402 469.764 470.841C468.658 473.265 468.105 476.227 468.105 479.727C468.105 483.288 468.658 486.288 469.764 488.727C470.885 491.152 472.416 492.985 474.355 494.227C476.31 495.455 478.544 496.068 481.06 496.068C482.454 496.068 483.757 495.886 484.969 495.523C486.196 495.144 487.294 494.591 488.264 493.864C489.249 493.136 490.075 492.242 490.741 491.182C491.423 490.121 491.893 488.909 492.151 487.546L500.651 487.591C500.332 489.803 499.643 491.879 498.582 493.818C497.537 495.758 496.166 497.47 494.469 498.955C492.772 500.424 490.787 501.576 488.514 502.409C486.241 503.227 483.719 503.636 480.946 503.636C476.855 503.636 473.204 502.689 469.991 500.796C466.779 498.902 464.249 496.167 462.401 492.591C460.552 489.015 459.628 484.727 459.628 479.727C459.628 474.712 460.56 470.424 462.423 466.864C464.287 463.288 466.825 460.553 470.037 458.659C473.249 456.765 476.885 455.818 480.946 455.818C483.537 455.818 485.946 456.182 488.173 456.909C490.401 457.636 492.385 458.705 494.128 460.114C495.87 461.508 497.302 463.22 498.423 465.25C499.56 467.265 500.302 469.568 500.651 472.159Z" fill="black"/>
<path d="M265.153 303V256.455H295.426V263.523H273.585V276.159H293.858V283.227H273.585V295.932H295.608V303H265.153Z" fill="black"/>
<path d="M291.102 454.273L276.102 510H268.898L283.898 454.273H291.102Z" fill="black"/>
<path d="M701.401 479.727C701.401 484.742 700.461 489.038 698.582 492.614C696.719 496.174 694.173 498.902 690.946 500.796C687.734 502.689 684.09 503.636 680.014 503.636C675.938 503.636 672.287 502.689 669.06 500.796C665.848 498.886 663.302 496.152 661.423 492.591C659.56 489.015 658.628 484.727 658.628 479.727C658.628 474.712 659.56 470.424 661.423 466.864C663.302 463.288 665.848 460.553 669.06 458.659C672.287 456.765 675.938 455.818 680.014 455.818C684.09 455.818 687.734 456.765 690.946 458.659C694.173 460.553 696.719 463.288 698.582 466.864C700.461 470.424 701.401 474.712 701.401 479.727ZM692.923 479.727C692.923 476.197 692.37 473.22 691.264 470.796C690.173 468.356 688.658 466.515 686.719 465.273C684.779 464.015 682.544 463.386 680.014 463.386C677.484 463.386 675.249 464.015 673.31 465.273C671.37 466.515 669.848 468.356 668.741 470.796C667.651 473.22 667.105 476.197 667.105 479.727C667.105 483.258 667.651 486.242 668.741 488.682C669.848 491.106 671.37 492.947 673.31 494.205C675.249 495.447 677.484 496.068 680.014 496.068C682.544 496.068 684.779 495.447 686.719 494.205C688.658 492.947 690.173 491.106 691.264 488.682C692.37 486.242 692.923 483.258 692.923 479.727Z" fill="black"/>
<path d="M684.242 256.455V303H675.81V256.455H684.242Z" fill="black"/>
<path d="M1065.15 503V456.455H1095.43V463.523H1073.59V476.159H1093.86V483.227H1073.59V495.932H1095.61V503H1065.15Z" fill="black"/>
<path d="M489.105 269.25C488.893 267.265 487.999 265.72 486.423 264.614C484.863 263.508 482.832 262.955 480.332 262.955C478.575 262.955 477.067 263.22 475.81 263.75C474.552 264.28 473.59 265 472.923 265.909C472.257 266.818 471.916 267.856 471.901 269.023C471.901 269.992 472.12 270.833 472.56 271.545C473.014 272.258 473.628 272.864 474.401 273.364C475.173 273.848 476.029 274.258 476.969 274.591C477.908 274.924 478.855 275.205 479.81 275.432L484.173 276.523C485.931 276.932 487.62 277.485 489.241 278.182C490.878 278.879 492.34 279.758 493.628 280.818C494.931 281.879 495.961 283.159 496.719 284.659C497.476 286.159 497.855 287.917 497.855 289.932C497.855 292.659 497.158 295.061 495.764 297.136C494.37 299.197 492.355 300.811 489.719 301.977C487.098 303.129 483.923 303.705 480.196 303.705C476.575 303.705 473.431 303.144 470.764 302.023C468.113 300.902 466.037 299.265 464.537 297.114C463.052 294.962 462.249 292.341 462.128 289.25H470.423C470.544 290.871 471.044 292.22 471.923 293.295C472.802 294.371 473.946 295.174 475.355 295.705C476.779 296.235 478.37 296.5 480.128 296.5C481.961 296.5 483.567 296.227 484.946 295.682C486.34 295.121 487.431 294.348 488.219 293.364C489.007 292.364 489.408 291.197 489.423 289.864C489.408 288.652 489.052 287.652 488.355 286.864C487.658 286.061 486.681 285.394 485.423 284.864C484.181 284.318 482.726 283.833 481.06 283.409L475.764 282.045C471.931 281.061 468.901 279.568 466.673 277.568C464.461 275.553 463.355 272.879 463.355 269.545C463.355 266.803 464.098 264.402 465.582 262.341C467.082 260.28 469.12 258.682 471.696 257.545C474.272 256.394 477.188 255.818 480.446 255.818C483.749 255.818 486.643 256.394 489.128 257.545C491.628 258.682 493.59 260.265 495.014 262.295C496.438 264.311 497.173 266.629 497.219 269.25H489.105Z" fill="black"/>
<path d="M877.176 503H861.403V456.455H877.494C882.115 456.455 886.085 457.386 889.403 459.25C892.737 461.099 895.297 463.758 897.085 467.227C898.873 470.697 899.767 474.849 899.767 479.682C899.767 484.53 898.865 488.697 897.062 492.182C895.275 495.667 892.691 498.341 889.312 500.205C885.949 502.068 881.903 503 877.176 503ZM869.835 495.705H876.767C880.009 495.705 882.714 495.114 884.881 493.932C887.047 492.735 888.676 490.955 889.767 488.591C890.858 486.212 891.403 483.242 891.403 479.682C891.403 476.121 890.858 473.167 889.767 470.818C888.676 468.455 887.062 466.689 884.926 465.523C882.805 464.341 880.168 463.75 877.017 463.75H869.835V495.705Z" fill="black"/>
<path d="M891.617 271.318C891.238 270.091 890.715 268.992 890.048 268.023C889.397 267.038 888.609 266.197 887.685 265.5C886.776 264.803 885.73 264.28 884.548 263.932C883.367 263.568 882.079 263.386 880.685 263.386C878.185 263.386 875.957 264.015 874.003 265.273C872.048 266.53 870.511 268.379 869.389 270.818C868.283 273.242 867.73 276.197 867.73 279.682C867.73 283.197 868.283 286.174 869.389 288.614C870.495 291.053 872.033 292.909 874.003 294.182C875.973 295.439 878.261 296.068 880.867 296.068C883.23 296.068 885.276 295.614 887.003 294.705C888.745 293.795 890.086 292.508 891.026 290.841C891.965 289.159 892.435 287.189 892.435 284.932L894.344 285.227H881.707V278.636H900.594V284.227C900.594 288.212 899.745 291.659 898.048 294.568C896.351 297.477 894.018 299.72 891.048 301.295C888.079 302.856 884.67 303.636 880.821 303.636C876.533 303.636 872.768 302.674 869.526 300.75C866.298 298.811 863.776 296.061 861.957 292.5C860.154 288.924 859.253 284.682 859.253 279.773C859.253 276.015 859.783 272.659 860.844 269.705C861.92 266.75 863.42 264.242 865.344 262.182C867.268 260.106 869.526 258.53 872.117 257.455C874.707 256.364 877.526 255.818 880.571 255.818C883.147 255.818 885.548 256.197 887.776 256.955C890.003 257.697 891.98 258.758 893.707 260.136C895.45 261.515 896.882 263.152 898.003 265.045C899.124 266.939 899.859 269.03 900.207 271.318H891.617Z" fill="black"/>
<path d="M1099.12 256.455V303H1091.62L1069.69 271.295H1069.3V303H1060.87V256.455H1068.42L1090.33 288.182H1090.74V256.455H1099.12Z" fill="black"/>
<path fill-rule="evenodd" clip-rule="evenodd" d="M144 8H16C11.5817 8 8 11.5817 8 16V144C8 148.418 11.5817 152 16 152H144C148.418 152 152 148.418 152 144V16C152 11.5817 148.418 8 144 8ZM16 0C7.16344 0 0 7.16345 0 16V144C0 152.837 7.16345 160 16 160H144C152.837 160 160 152.837 160 144V16C160 7.16344 152.837 0 144 0H16Z" fill="black"/>
<path fill-rule="evenodd" clip-rule="evenodd" d="M1144 608H1016C1011.58 608 1008 611.582 1008 616V744C1008 748.418 1011.58 752 1016 752H1144C1148.42 752 1152 748.418 1152 744V616C1152 611.582 1148.42 608 1144 608ZM1016 600C1007.16 600 1000 607.163 1000 616V744C1000 752.837 1007.16 760 1016 760H1144C1152.84 760 1160 752.837 1160 744V616C1160 607.163 1152.84 600 1144 600H1016Z" fill="black"/>
<path fill-rule="evenodd" clip-rule="evenodd" d="M354 8H226C221.582 8 218 11.5817 218 16V144C218 148.418 221.582 152 226 152H354C358.418 152 362 148.418 362 144V16C362 11.5817 358.418 8 354 8ZM226 0C217.163 0 210 7.16345 210 16V144C210 152.837 217.163 160 226 160H354C362.837 160 370 152.837 370 144V16C370 7.16344 362.837 0 354 0H226Z" fill="black"/>
<path fill-rule="evenodd" clip-rule="evenodd" d="M944 608H816C811.582 608 808 611.582 808 616V744C808 748.418 811.582 752 816 752H944C948.418 752 952 748.418 952 744V616C952 611.582 948.418 608 944 608ZM816 600C807.163 600 800 607.163 800 616V744C800 752.837 807.163 760 816 760H944C952.837 760 960 752.837 960 744V616C960 607.163 952.837 600 944 600H816Z" fill="black"/>
<path fill-rule="evenodd" clip-rule="evenodd" d="M544 8H416C411.582 8 408 11.5817 408 16V144C408 148.418 411.582 152 416 152H544C548.418 152 552 148.418 552 144V16C552 11.5817 548.418 8 544 8ZM416 0C407.163 0 400 7.16345 400 16V144C400 152.837 407.163 160 416 160H544C552.837 160 560 152.837 560 144V16C560 7.16344 552.837 0 544 0H416Z" fill="black"/>
<path fill-rule="evenodd" clip-rule="evenodd" d="M744 608H616C611.582 608 608 611.582 608 616V744C608 748.418 611.582 752 616 752H744C748.418 752 752 748.418 752 744V616C752 611.582 748.418 608 744 608ZM616 600C607.163 600 600 607.163 600 616V744C600 752.837 607.163 760 616 760H744C752.837 760 760 752.837 760 744V616C760 607.163 752.837 600 744 600H616Z" fill="black"/>
<path fill-rule="evenodd" clip-rule="evenodd" d="M744 8H616C611.582 8 608 11.5817 608 16V144C608 148.418 611.582 152 616 152H744C748.418 152 752 148.418 752 144V16C752 11.5817 748.418 8 744 8ZM616 0C607.163 0 600 7.16345 600 16V144C600 152.837 607.163 160 616 160H744C752.837 160 760 152.837 760 144V16C760 7.16344 752.837 0 744 0H616Z" fill="black"/>
<path fill-rule="evenodd" clip-rule="evenodd" d="M544 608H416C411.582 608 408 611.582 408 616V744C408 748.418 411.582 752 416 752H544C548.418 752 552 748.418 552 744V616C552 611.582 548.418 608 544 608ZM416 600C407.163 600 400 607.163 400 616V744C400 752.837 407.163 760 416 760H544C552.837 760 560 752.837 560 744V616C560 607.163 552.837 600 544 600H416Z" fill="black"/>
<path fill-rule="evenodd" clip-rule="evenodd" d="M144 208H16C11.5817 208 8 211.582 8 216V344C8 348.418 11.5817 352 16 352H144C148.418 352 152 348.418 152 344V216C152 211.582 148.418 208 144 208ZM16 200C7.16344 200 0 207.163 0 216V344C0 352.837 7.16345 360 16 360H144C152.837 360 160 352.837 160 344V216C160 207.163 152.837 200 144 200H16Z" fill="black"/>
<path fill-rule="evenodd" clip-rule="evenodd" d="M144 408H16C11.5817 408 8 411.582 8 416V544C8 548.418 11.5817 552 16 552H144C148.418 552 152 548.418 152 544V416C152 411.582 148.418 408 144 408ZM16 400C7.16344 400 0 407.163 0 416V544C0 552.837 7.16345 560 16 560H144C152.837 560 160 552.837 160 544V416C160 407.163 152.837 400 144 400H16Z" fill="black"/>
<path fill-rule="evenodd" clip-rule="evenodd" d="M544 408H416C411.582 408 408 411.582 408 416V544C408 548.418 411.582 552 416 552H544C548.418 552 552 548.418 552 544V416C552 411.582 548.418 408 544 408ZM416 400C407.163 400 400 407.163 400 416V544C400 552.837 407.163 560 416 560H544C552.837 560 560 552.837 560 544V416C560 407.163 552.837 400 544 400H416Z" fill="black"/>
<path fill-rule="evenodd" clip-rule="evenodd" d="M344 208H216C211.582 208 208 211.582 208 216V344C208 348.418 211.582 352 216 352H344C348.418 352 352 348.418 352 344V216C352 211.582 348.418 208 344 208ZM216 200C207.163 200 200 207.163 200 216V344C200 352.837 207.163 360 216 360H344C352.837 360 360 352.837 360 344V216C360 207.163 352.837 200 344 200H216Z" fill="black"/>
<path fill-rule="evenodd" clip-rule="evenodd" d="M344 408H216C211.582 408 208 411.582 208 416V544C208 548.418 211.582 552 216 552H344C348.418 552 352 548.418 352 544V416C352 411.582 348.418 408 344 408ZM216 400C207.163 400 200 407.163 200 416V544C200 552.837 207.163 560 216 560H344C352.837 560 360 552.837 360 544V416C360 407.163 352.837 400 344 400H216Z" fill="black"/>
<path fill-rule="evenodd" clip-rule="evenodd" d="M744 408H616C611.582 408 608 411.582 608 416V544C608 548.418 611.582 552 616 552H744C748.418 552 752 548.418 752 544V416C752 411.582 748.418 408 744 408ZM616 400C607.163 400 600 407.163 600 416V544C600 552.837 607.163 560 616 560H744C752.837 560 760 552.837 760 544V416C760 407.163 752.837 400 744 400H616Z" fill="black"/>
<path fill-rule="evenodd" clip-rule="evenodd" d="M744 208H616C611.582 208 608 211.582 608 216V344C608 348.418 611.582 352 616 352H744C748.418 352 752 348.418 752 344V216C752 211.582 748.418 208 744 208ZM616 200C607.163 200 600 207.163 600 216V344C600 352.837 607.163 360 616 360H744C752.837 360 760 352.837 760 344V216C760 207.163 752.837 200 744 200H616Z" fill="black"/>
<path fill-rule="evenodd" clip-rule="evenodd" d="M1144 408H1016C1011.58 408 1008 411.582 1008 416V544C1008 548.418 1011.58 552 1016 552H1144C1148.42 552 1152 548.418 1152 544V416C1152 411.582 1148.42 408 1144 408ZM1016 400C1007.16 400 1000 407.163 1000 416V544C1000 552.837 1007.16 560 1016 560H1144C1152.84 560 1160 552.837 1160 544V416C1160 407.163 1152.84 400 1144 400H1016Z" fill="black"/>
<path fill-rule="evenodd" clip-rule="evenodd" d="M544 208H416C411.582 208 408 211.582 408 216V344C408 348.418 411.582 352 416 352H544C548.418 352 552 348.418 552 344V216C552 211.582 548.418 208 544 208ZM416 200C407.163 200 400 207.163 400 216V344C400 352.837 407.163 360 416 360H544C552.837 360 560 352.837 560 344V216C560 207.163 552.837 200 544 200H416Z" fill="black"/>
<path fill-rule="evenodd" clip-rule="evenodd" d="M944 408H816C811.582 408 808 411.582 808 416V544C808 548.418 811.582 552 816 552H944C948.418 552 952 548.418 952 544V416C952 411.582 948.418 408 944 408ZM816 400C807.163 400 800 407.163 800 416V544C800 552.837 807.163 560 816 560H944C952.837 560 960 552.837 960 544V416C960 407.163 952.837 400 944 400H816Z" fill="black"/>
<path fill-rule="evenodd" clip-rule="evenodd" d="M944 208H816C811.582 208 808 211.582 808 216V344C808 348.418 811.582 352 816 352H944C948.418 352 952 348.418 952 344V216C952 211.582 948.418 208 944 208ZM816 200C807.163 200 800 207.163 800 216V344C800 352.837 807.163 360 816 360H944C952.837 360 960 352.837 960 344V216C960 207.163 952.837 200 944 200H816Z" fill="black"/>
<path fill-rule="evenodd" clip-rule="evenodd" d="M1144 208H1016C1011.58 208 1008 211.582 1008 216V344C1008 348.418 1011.58 352 1016 352H1144C1148.42 352 1152 348.418 1152 344V216C1152 211.582 1148.42 208 1144 208ZM1016 200C1007.16 200 1000 207.163 1000 216V344C1000 352.837 1007.16 360 1016 360H1144C1152.84 360 1160 352.837 1160 344V216C1160 207.163 1152.84 200 1144 200H1016Z" fill="black"/>
</svg>
